<?xml version="1.0" encoding="UTF-8"?>
<!DOCTYPE svg PUBLIC "-//W3C//DTD SVG 1.1//EN" "http://www.w3.org/Graphics/SVG/1.1/DTD/svg11.dtd">
<svg xmlns="http://www.w3.org/2000/svg" version="1.1" width="120px" height="100px" viewBox="0 0 1134 298" style="shape-rendering:geometricPrecision; text-rendering:geometricPrecision; image-rendering:optimizeQuality; fill-rule:evenodd; clip-rule:evenodd" xmlns:xlink="http://www.w3.org/1999/xlink">
<g><path style="opacity:0.966" fill="#4db87a" d="M 985.5,51.5 C 996.963,51.089 1007.96,53.089 1018.5,57.5C 1018.83,58.1667 1019.17,58.8333 1019.5,59.5C 1017.35,67.7518 1015.69,76.0852 1014.5,84.5C 1008.33,83.0816 1002.16,81.7483 996,80.5C 989.115,80.7169 984.449,84.0502 982,90.5C 980.025,96.7334 978.525,103.067 977.5,109.5C 987.5,109.5 997.5,109.5 1007.5,109.5C 1005.99,118.529 1004.33,127.529 1002.5,136.5C 992.167,136.5 981.833,136.5 971.5,136.5C 963.528,175.194 955.361,213.861 947,252.5C 935.91,253.653 924.743,253.82 913.5,253C 922.277,214.285 930.61,175.452 938.5,136.5C 931.5,136.5 924.5,136.5 917.5,136.5C 919.039,127.474 920.705,118.474 922.5,109.5C 929.833,109.5 937.167,109.5 944.5,109.5C 946.172,101.146 948.005,92.8123 950,84.5C 954.74,65.5843 966.574,54.5843 985.5,51.5 Z"/></g>
<g><path style="opacity:0.966" fill="#4db87a" d="M 880.5,52.5 C 891.167,52.5 901.833,52.5 912.5,52.5C 910.167,64.4986 907.834,76.4986 905.5,88.5C 894.833,88.5 884.167,88.5 873.5,88.5C 875.577,76.4478 877.91,64.4478 880.5,52.5 Z"/></g>
<g><path style="opacity:0.973" class="fill-current text-gray-600 dark:text-white" d="M 59.5,54.5 C 80.5026,54.3334 101.503,54.5 122.5,55C 156.35,60.8827 169.516,80.716 162,114.5C 159.753,129.248 154.753,142.915 147,155.5C 138.163,164.835 127.33,170.335 114.5,172C 98.9532,173.013 83.4532,173.847 68,174.5C 62.8174,200.58 57.3174,226.58 51.5,252.5C 40.1862,253.499 28.8529,253.832 17.5,253.5C 31.5,187.167 45.5,120.833 59.5,54.5 Z M 87.5,83.5 C 97.8829,83.1619 108.216,83.6619 118.5,85C 128.52,89.6721 132.02,97.5055 129,108.5C 127.568,117.567 124.901,126.234 121,134.5C 115.767,141.032 108.933,144.199 100.5,144C 91.8142,144.832 83.1475,144.665 74.5,143.5C 79.0894,123.553 83.4228,103.553 87.5,83.5 Z"/></g>
<g><path style="opacity:0.972" fill="#4db87a" d="M 753.5,54.5 C 765.186,54.1678 776.852,54.5011 788.5,55.5C 775.988,111.727 763.988,168.06 752.5,224.5C 775.176,224.167 797.843,224.5 820.5,225.5C 818.183,234.768 816.183,244.101 814.5,253.5C 780.165,253.667 745.832,253.5 711.5,253C 726.072,186.975 740.072,120.808 753.5,54.5 Z"/></g>
<g><path style="opacity:0.966" fill="#4db87a" d="M 1049.5,71.5 C 1059.51,71.3335 1069.51,71.5002 1079.5,72C 1076.65,84.4365 1073.98,96.9365 1071.5,109.5C 1081.83,109.5 1092.17,109.5 1102.5,109.5C 1100.7,118.478 1099.04,127.478 1097.5,136.5C 1086.41,135.87 1075.58,136.537 1065,138.5C 1060,162.167 1055,185.833 1050,209.5C 1047.02,219.393 1050.52,225.226 1060.5,227C 1066.19,227.554 1071.85,227.387 1077.5,226.5C 1075.83,235.837 1074.17,245.171 1072.5,254.5C 1061.15,257.067 1049.82,256.9 1038.5,254C 1020.44,248.078 1012.94,235.578 1016,216.5C 1021.44,189.808 1026.94,163.141 1032.5,136.5C 1025.5,136.5 1018.5,136.5 1011.5,136.5C 1013.01,127.473 1014.67,118.473 1016.5,109.5C 1024.2,109.831 1031.86,109.497 1039.5,108.5C 1043.24,96.2678 1046.58,83.9345 1049.5,71.5 Z"/></g>
<g><path style="opacity:0.971" class="fill-current text-gray-600 dark:text-white" d="M 220.5,106.5 C 237.09,104.793 252.424,108.293 266.5,117C 279.864,128.925 284.697,143.759 281,161.5C 277.255,180.223 273.255,198.889 269,217.5C 259.649,243.534 240.982,256.534 213,256.5C 194.302,257.142 178.968,250.475 167,236.5C 160.531,224.503 158.865,211.836 162,198.5C 165.206,182.805 168.539,167.139 172,151.5C 178.159,125.502 194.325,110.502 220.5,106.5 Z M 222.5,134.5 C 229.526,133.805 236.193,134.972 242.5,138C 247.138,142.11 249.471,147.276 249.5,153.5C 245.91,173.285 241.743,192.952 237,212.5C 230.741,226.156 220.241,230.989 205.5,227C 194.791,222.257 190.958,214.09 194,202.5C 197.842,184.798 201.842,167.131 206,149.5C 209.198,141.795 214.698,136.795 222.5,134.5 Z"/></g>
<g><path style="opacity:0.971" class="fill-current text-gray-600 dark:text-white" d="M 544.5,106.5 C 562.817,104.413 579.484,108.579 594.5,119C 603.214,127.629 607.547,138.129 607.5,150.5C 606.172,162.975 604.005,175.309 601,187.5C 574.574,188.495 548.074,188.828 521.5,188.5C 519.838,196.8 518.671,205.133 518,213.5C 519.288,220.79 523.455,225.623 530.5,228C 550.396,233.062 562.062,225.562 565.5,205.5C 575.833,205.5 586.167,205.5 596.5,205.5C 591.52,238.972 572.02,255.972 538,256.5C 525.331,256.368 513.498,253.201 502.5,247C 488.358,235.924 482.858,221.424 486,203.5C 489.983,181.584 494.983,159.917 501,138.5C 509.68,119.911 524.18,109.244 544.5,106.5 Z M 546.5,133.5 C 570.764,131.424 579.764,142.091 573.5,165.5C 558.167,165.5 542.833,165.5 527.5,165.5C 528.078,157.857 529.911,150.523 533,143.5C 536.555,138.763 541.055,135.43 546.5,133.5 Z"/></g>
<g><path style="opacity:0.965" class="fill-current text-gray-600 dark:text-white" d="M 696.5,106.5 C 704.261,105.92 711.761,106.92 719,109.5C 718.119,119.248 716.452,128.915 714,138.5C 713.612,139.428 712.945,140.095 712,140.5C 684.049,134.436 667.049,145.436 661,173.5C 655.496,200.181 649.996,226.847 644.5,253.5C 633.5,253.5 622.5,253.5 611.5,253.5C 621.5,205.5 631.5,157.5 641.5,109.5C 651.172,109.334 660.839,109.5 670.5,110C 668.736,116.421 667.569,122.921 667,129.5C 673.476,117.365 683.309,109.699 696.5,106.5 Z"/></g>
<g><path style="opacity:0.968" class="fill-current text-gray-600 dark:text-white" d="M 308.5,109.5 C 318.833,109.5 329.167,109.5 339.5,109.5C 338.51,144.495 338.343,179.495 339,214.5C 353.264,179.874 367.431,145.207 381.5,110.5C 392.814,109.501 404.147,109.168 415.5,109.5C 414.554,144.831 414.054,180.164 414,215.5C 428.5,180.5 443,145.5 457.5,110.5C 467.817,109.334 478.151,109.168 488.5,110C 468.407,157.442 448.407,204.942 428.5,252.5C 415.517,253.499 402.517,253.832 389.5,253.5C 390.609,220.179 390.775,186.846 390,153.5C 376.167,186.5 362.333,219.5 348.5,252.5C 335.183,253.499 321.85,253.833 308.5,253.5C 308.5,205.5 308.5,157.5 308.5,109.5 Z"/></g>
<g><path style="opacity:0.967" fill="#4db87a" d="M 868.5,109.5 C 879.505,109.333 890.505,109.5 901.5,110C 891.235,157.489 880.902,204.989 870.5,252.5C 859.515,253.666 848.515,253.832 837.5,253C 847.898,205.177 858.231,157.343 868.5,109.5 Z"/></g>
</svg>
